<?xml version="1.0" encoding="utf-8"?>
<!-- Generator: Adobe Illustrator 23.0.2, SVG Export Plug-In . SVG Version: 6.00 Build 0)  -->
<svg version="1.1" id="Layer_1" xmlns="http://www.w3.org/2000/svg" xmlns:xlink="http://www.w3.org/1999/xlink" x="0px" y="0px"
	 viewBox="0 0 623.5 720" style="enable-background:new 0 0 623.5 720;" xml:space="preserve">
<path d="M538.8,499.6l-5.7-3.3l8.4,31.2c1.1,3.9-1.3,8-5.2,9c-3.9,1.1-8-1.3-9-5.2L515,485.9l-56.1-32.4l3.3,12.3l40.8,23.5
	c3.5,2,4.7,6.6,2.7,10.1c-2,3.5-6.6,4.7-10.1,2.7l-28-16.2l1.7,6.3l26.5,32.8l-9.4,59.6l-37.9-46.9l6.6-41.6l-1.7-6.3l-16.1,28
	c-2,3.5-6.6,4.7-10.1,2.7c-3.5-2-4.7-6.6-2.7-10.1l23.5-40.8l-7.1-26.6L332,380.2l27.9,48.3l45.5,12.2c3.9,1.1,6.3,5.1,5.2,9
	c-1.1,3.9-5.1,6.3-9,5.2l-31.2-8.4l3.3,5.7l34.1,24.8l6.4,60l-48.8-35.5l-4.4-41.9l-3.3-5.7l-8.4,31.2c-1.1,3.9-5.1,6.3-9.1,5.2
	c-3.9-1.1-6.3-5.1-5.2-9l12.2-45.5l-27.9-48.4v125.7l19.4,19.4h47.1c4.1,0,7.4,3.3,7.4,7.4c0,4.1-3.3,7.4-7.4,7.4h-32.3l4.6,4.6
	l39.3,15.1l21.7,56.3l-56.3-21.7l-15.1-39.3l-4.6-4.6v32.3c0,4.1-3.3,7.4-7.4,7.4c-4.1,0-7.4-3.3-7.4-7.4v-47.1l-9-9V599l33.3,33.3
	c2.9,2.9,2.9,7.6,0,10.5c-2.9,2.9-7.6,2.9-10.4,0l-22.8-22.8v6.5l17.1,38.5L311.8,720l-24.5-55.1l17.1-38.5v-6.5l-22.8,22.8
	c-2.9,2.9-7.6,2.9-10.4,0c-2.9-2.9-2.9-7.6,0-10.5l33.3-33.3v-64.8l-9,9v47.1c0,4.1-3.3,7.4-7.4,7.4c-4.1,0-7.4-3.3-7.4-7.4V558
	l-4.6,4.6l-15.1,39.3l-56.3,21.7l21.7-56.3l39.3-15.1l4.6-4.6h-32.3c-4.1,0-7.4-3.3-7.4-7.4c0-4.1,3.3-7.4,7.4-7.4h47.1l19.4-19.4
	V387.6l-27.9,48.4l12.2,45.5c1.1,3.9-1.3,8-5.2,9c-3.9,1.1-8-1.3-9-5.2L266,454l-3.3,5.7l-4.4,41.9l-48.8,35.5l6.4-60l34.1-24.8
	l3.3-5.7L222,455c-3.9,1.1-8-1.3-9-5.2c-1.1-3.9,1.3-8,5.2-9l45.5-12.2l27.9-48.3l-108.9,62.9l-7.1,26.6l23.5,40.8
	c2,3.5,0.8,8.1-2.7,10.1c-3.5,2-8,0.8-10.1-2.7l-16.1-28l-1.7,6.3l6.6,41.6l-37.9,46.9l-9.4-59.6l26.5-32.8l1.7-6.3l-28,16.2
	c-3.5,2-8.1,0.8-10.1-2.7c-2-3.5-0.8-8.1,2.7-10.1l40.8-23.5l3.3-12.3l-56.1,32.4l-12.2,45.5c-1.1,3.9-5.1,6.3-9,5.2
	c-3.9-1.1-6.3-5.1-5.2-9l8.4-31.2l-5.7,3.3L60,533.6L0,540l35.5-48.8l41.9-4.4l5.7-3.3l-31.2-8.4c-3.9-1.1-6.3-5.1-5.2-9
	c1.1-3.9,5.1-6.3,9.1-5.2l45.5,12.2l56.1-32.4l-12.3-3.3l-40.8,23.5c-3.5,2-8,0.8-10.1-2.7c-2-3.5-0.8-8.1,2.7-10.1l28-16.1
	l-6.3-1.7l-41.6,6.5l-46.9-37.9l59.6-9.4l32.8,26.5l6.3,1.7l-16.1-28c-2-3.5-0.8-8,2.7-10.1c3.5-2,8.1-0.8,10.1,2.7l23.5,40.8
	l26.6,7.1l108.9-62.9l-55.8,0l-33.3,33.3c-2.9,2.9-7.6,2.9-10.4,0c-2.9-2.9-2.9-7.6,0-10.4l22.8-22.8h-6.5l-38.5,17.1L107.3,360
	l55.1-24.5l38.5,17.1h6.5l-22.8-22.8c-2.9-2.9-2.9-7.6,0-10.4c2.9-2.9,7.6-2.9,10.4,0l33.3,33.3h55.8l-108.9-62.9l-26.6,7.1
	l-23.5,40.8c-2,3.5-6.6,4.7-10.1,2.7c-3.5-2-4.7-6.6-2.7-10.1l16.1-28l-6.3,1.7l-32.8,26.5l-59.6-9.4l46.9-37.9l41.6,6.6l6.3-1.7
	l-28-16.1c-3.5-2-4.7-6.6-2.7-10.1c2-3.5,6.6-4.7,10.1-2.7l40.8,23.5l12.3-3.3l-56.1-32.4l-45.5,12.2c-3.9,1.1-8-1.3-9.1-5.2
	c-1.1-3.9,1.3-8,5.2-9l31.2-8.4l-5.7-3.3l-41.9-4.4L0,180l60,6.4l24.8,34.1l5.7,3.3l-8.4-31.2c-1.1-3.9,1.3-8,5.2-9
	c3.9-1.1,8,1.3,9,5.2l12.2,45.5l56.1,32.4l-3.3-12.3l-40.8-23.5c-3.5-2-4.7-6.6-2.7-10.1c2-3.5,6.6-4.7,10.1-2.7l28,16.1l-1.7-6.3
	L127.7,195l9.4-59.6l37.9,46.9l-6.6,41.6l1.7,6.3l16.1-28c2-3.5,6.6-4.7,10.1-2.7c3.5,2,4.7,6.6,2.7,10.1l-23.5,40.8l7.1,26.6
	l108.9,62.9l-27.9-48.4l-45.5-12.2c-3.9-1.1-6.3-5.1-5.2-9c1.1-3.9,5.1-6.3,9-5.2l31.2,8.4l-3.3-5.7l-34.1-24.8l-6.4-60l48.8,35.5
	l4.4,41.9l3.3,5.7l8.4-31.2c1.1-3.9,5.1-6.3,9-5.2c3.9,1.1,6.3,5.1,5.2,9l-12.2,45.5l27.9,48.3V206.7l-19.4-19.4h-47.1
	c-4.1,0-7.4-3.3-7.4-7.4c0-4.1,3.3-7.4,7.4-7.4h32.3l-4.6-4.6l-39.3-15.1l-21.7-56.3l56.3,21.7l15.1,39.3l4.6,4.6v-32.3
	c0-4.1,3.3-7.4,7.4-7.4c4.1,0,7.4,3.3,7.4,7.4v47.1l9,9V121l-33.3-33.3c-2.9-2.9-2.9-7.6,0-10.4c2.9-2.9,7.6-2.9,10.4,0l22.8,22.8
	v-6.5l-17.1-38.5L311.8,0l24.5,55.1l-17.1,38.5v6.5L342,77.3c2.9-2.9,7.6-2.9,10.4,0c2.9,2.9,2.9,7.6,0,10.4L319.2,121v64.7l9-9
	v-47.1c0-4.1,3.3-7.4,7.4-7.4c4.1,0,7.4,3.3,7.4,7.4V162l4.6-4.6l15.1-39.3L419,96.4l-21.7,56.3L358,167.8l-4.6,4.6h32.3
	c4.1,0,7.4,3.3,7.4,7.4c0,4.1-3.3,7.4-7.4,7.4h-47.1l-19.5,19.4v125.7l27.9-48.4l-12.2-45.5c-1.1-3.9,1.3-8,5.2-9
	c3.9-1.1,8,1.3,9,5.2l8.4,31.2l3.3-5.7l4.4-41.9l48.8-35.5l-6.4,60l-34.1,24.8l-3.3,5.7l31.2-8.4c3.9-1.1,8,1.3,9,5.2
	c1.1,3.9-1.3,8-5.2,9l-45.5,12.2L332,339.8l108.9-62.9l7.1-26.6l-23.5-40.8c-2-3.5-0.8-8.1,2.7-10.1c3.5-2,8.1-0.8,10.1,2.7l16.1,28
	l1.7-6.3l-6.6-41.6l37.9-46.9l9.4,59.6l-26.5,32.8l-1.7,6.3l28-16.1c3.5-2,8.1-0.8,10.1,2.7c2,3.5,0.8,8.1-2.7,10.1l-40.8,23.5
	l-3.3,12.3l56.1-32.4l12.2-45.5c1.1-3.9,5.1-6.3,9-5.2c3.9,1.1,6.3,5.1,5.2,9l-8.4,31.2l5.7-3.3l24.8-34.1l60-6.4L588,228.8
	l-41.9,4.4l-5.7,3.3l31.2,8.4c3.9,1.1,6.3,5.1,5.2,9c-1.1,3.9-5.1,6.3-9.1,5.2l-45.5-12.2l-56.1,32.4l12.3,3.3l40.8-23.5
	c3.5-2,8.1-0.8,10.1,2.7c2,3.5,0.8,8.1-2.7,10.1l-28,16.2l6.3,1.7l41.6-6.6l46.9,37.9l-59.6,9.4L501.3,304l-6.3-1.7l16.2,28
	c2,3.5,0.8,8.1-2.7,10.1c-3.5,2-8.1,0.8-10.1-2.7l-23.5-40.8l-26.6-7.1l-108.9,62.9h55.8l33.3-33.3c2.9-2.9,7.6-2.9,10.5,0
	c2.9,2.9,2.9,7.6,0,10.4l-22.8,22.8h6.5l38.5-17.1l55.1,24.5l-55.1,24.5l-38.5-17.1h-6.5l22.8,22.8c2.9,2.9,2.9,7.6,0,10.4
	c-2.9,2.9-7.6,2.9-10.5,0l-33.3-33.3l-55.8,0l108.9,62.9l26.6-7.1l23.5-40.8c2-3.5,6.6-4.7,10.1-2.7c3.5,2,4.7,6.5,2.7,10.1
	l-16.2,28l6.3-1.7l32.7-26.5l59.6,9.4l-46.9,37.9l-41.6-6.5l-6.3,1.7l28,16.1c3.5,2,4.7,6.6,2.7,10.1c-2,3.5-6.6,4.7-10.1,2.7
	l-40.8-23.5l-12.3,3.3l56.1,32.4l45.5-12.2c3.9-1.1,8,1.3,9.1,5.2c1.1,3.9-1.3,8-5.2,9l-31.2,8.4l5.7,3.3l41.9,4.4l35.5,48.8
	l-60-6.4L538.8,499.6z"/>
</svg>
