<?xml version="1.0" encoding="utf-8"?>
<!-- Generator: Adobe Illustrator 23.0.2, SVG Export Plug-In . SVG Version: 6.00 Build 0)  -->
<svg version="1.1" id="Layer_1" xmlns="http://www.w3.org/2000/svg" xmlns:xlink="http://www.w3.org/1999/xlink" x="0px" y="0px"
	 viewBox="0 0 720 720" style="enable-background:new 0 0 720 720;" xml:space="preserve">
<style type="text/css">
	.st0{fill:#010101;}
</style>
<path class="st0" d="M307.4,362.1l28.5,42.1h53l24.5-42.1l-25.8-44.8h-53.1L307.4,362.1z M329.2,700.3v-95.1l-53.1,29.9L249,619.6
	v-33.5l78.8-44.8v-62.5l-57.2,36.7v-66.2L216,480.8v89.8l-29.9,18.5l-25.3-16.7v-60.2L77.9,559l-35.4-14.9v-37.9l87-47.6l-54.4-27.4
	v-34.7l30.9-16.9l78.1,46l54.2-31.3l-1.3-1l-55.4-31.8l53.8-33.4l-54-31.3l-78.1,45.9L74,328.1v-34.6l52.8-29.7L42.5,218V180
	l32.4-16.7l83.1,48v-61.2l25.1-16.9l30.7,17.7l-0.2,91.6l55.8,31.9l-0.2-64.7l58.6,31.5v-62.5L249,133.8v-33.2l27.1-15.7l53.1,29.9
	V19.9L359.6,0l30.7,19.9v94.9l55.1-30.5l27.7,18.3v29.9l-81.5,46.2v62.5l55.8-34v68l57.4-31.3V146l27.7-12.9l29.1,12.9v62.6
	l85.5-46.2l29.9,18.2V216l-83.5,47.5l52.2,29.3v33.8l-27.1,15l-80.2-47.4l-55.5,35.2l53.6,33.4l-55.2,31.8l57.1,29.9l80.2-44.8
	l25.8,18.2v32.3l-50.3,28.3l80.1,47.6v37.4L640.1,559l-78.7-44.8v59.3l-28.3,15.8l-27.7-15.8v-90l-58.3-33.2v62.5l-55.8-34v62.5
	l78.8,44.8v35.4l-27.2,13.6l-52.8-29.9v95.1L359.6,720L329.2,700.3z"/>
</svg>
