<?xml version="1.0" encoding="utf-8"?>
<!-- Generator: Adobe Illustrator 23.0.2, SVG Export Plug-In . SVG Version: 6.00 Build 0)  -->
<svg version="1.1" id="Layer_1" xmlns="http://www.w3.org/2000/svg" xmlns:xlink="http://www.w3.org/1999/xlink" x="0px" y="0px"
	 viewBox="0 0 627.3 720" style="enable-background:new 0 0 627.3 720;" xml:space="preserve">
<path d="M410.8,384.7c1.7,3,2.7,5.9,2.6,8.6c0.4-14.2,29.6-33.6,49.8-33.1c-16.3-0.4-37.9-14.3-45.3-27.1c-1.7-3-2.7-5.9-2.6-8.6
	c-0.4,14.2-29.6,33.6-49.8,33.1C381.8,358,403.4,371.9,410.8,384.7L410.8,384.7z M414.8,339.8c5.4,7.2,14.4,14.6,24.4,19.7
	c-4,1.8-8,4-11.8,6.5c-3.3,2.2-9.1,6.4-13.6,11.9c-5.4-7.2-14.4-14.6-24.4-19.7c4-1.8,8-4,11.8-6.5
	C404.5,349.5,410.3,345.3,414.8,339.8z M620,520.4l-22.7-13.1l1.7-0.4c6.1-1.6,9.8-8,8.1-14.1c-1.6-6.1-8-9.8-14.1-8.1l-23.9,6.4
	l-43.8-25.3l42.4-11.4c6.1-1.6,9.8-8,8.1-14.1c-1.6-6.1-8-9.8-14.1-8.1l-64.6,17.3l-61.7-35.6l95.4-37.8c0.4-0.2,0.8-0.4,1.3-0.6
	c7.4,3.1,16.2,0.3,20.3-6.9c1.6-2.7,2.2-5.6,2.2-8.5c0.1-2.9-0.6-5.9-2.2-8.6c-4.1-7.2-12.9-10-20.3-6.9c-0.4-0.2-0.8-0.4-1.3-0.6
	l-95.4-37.8l61.7-35.6l64.6,17.3c6.1,1.6,12.4-2,14.1-8.1c1.6-6.1-2-12.4-8.1-14.1l-42.4-11.4l43.8-25.3l23.9,6.4
	c6.1,1.6,12.4-2,14.1-8.1c1.6-6.1-2-12.4-8.1-14.1l-1.7-0.4l22.7-13.1c6.9-4,9.3-12.8,5.4-19.6c-3.9-6.8-12.7-9.1-19.7-5.1
	L583.1,188l0.4-1.7c1.6-6.1-2-12.4-8.1-14.1c-6.1-1.6-12.4,2-14.1,8.1l-6.4,23.9L511,229.6l11.4-42.4c1.6-6.1-2-12.4-8.1-14.1
	c-6.1-1.6-12.4,2-14.1,8.1l-17.3,64.6l-61.7,35.6l15-101.5c0.1-0.5,0.1-0.9,0.1-1.4c6.4-4.9,8.3-13.9,4.2-21
	c-1.6-2.7-3.8-4.8-6.3-6.1c-2.5-1.5-5.4-2.4-8.5-2.4c-8.3,0-15.1,6.2-16.1,14.1c-0.4,0.2-0.8,0.5-1.2,0.8l-80.4,63.7v-71.3
	l47.3-47.3c4.5-4.5,4.5-11.8,0-16.3c-4.5-4.5-11.8-4.5-16.3,0l-31,31V73.2l17.5-17.5c4.5-4.5,4.5-11.8,0-16.3
	c-4.5-4.5-11.8-4.5-16.3,0l-1.2,1.2V14.5c0-8-6.4-14.5-14.3-14.5c-7.9,0-14.3,6.5-14.3,14.5v26.2l-1.2-1.2c-4.5-4.5-11.8-4.5-16.3,0
	c-4.5,4.5-4.5,11.8,0,16.3l17.5,17.5v50.6l-31-31c-4.5-4.5-11.8-4.5-16.3,0c-4.5,4.5-4.5,11.8,0,16.3l47.3,47.3v71.3L219,163.9
	c-0.4-0.3-0.8-0.5-1.2-0.8c-1-8-7.8-14.1-16.1-14.1c-3.1,0-6,0.9-8.5,2.4c-2.6,1.4-4.8,3.4-6.3,6.1c-4.1,7.2-2.2,16.1,4.2,21
	c0,0.5,0,0.9,0.1,1.4l15,101.5l-61.7-35.6l-17.3-64.6c-1.6-6.1-8-9.8-14.1-8.1c-6.1,1.6-9.8,8-8.1,14.1l11.3,42.4l-43.8-25.3
	L66,180.4c-1.6-6.1-8-9.8-14.1-8.1c-6.1,1.6-9.8,8-8.1,14.1l0.5,1.7l-22.7-13.1c-6.9-4-15.7-1.7-19.7,5.1
	c-3.9,6.8-1.5,15.6,5.4,19.6L30,212.7l-1.7,0.4c-6.1,1.6-9.8,8-8.1,14.1c1.6,6.1,8,9.8,14.1,8.1l23.9-6.4l43.8,25.3l-42.4,11.4
	c-6.1,1.6-9.8,8-8.1,14.1c1.6,6.1,8,9.8,14.1,8.1l64.6-17.3l61.7,35.6L96.5,344c-0.4,0.2-0.9,0.4-1.3,0.6
	c-7.4-3.1-16.2-0.3-20.3,6.9c-1.6,2.7-2.2,5.6-2.2,8.5c-0.1,2.9,0.6,5.9,2.2,8.6c4.1,7.2,12.9,10,20.3,6.9c0.4,0.2,0.8,0.4,1.3,0.6
	l95.4,37.8l-61.7,35.6l-64.6-17.3c-6.1-1.6-12.5,2-14.1,8.1c-1.6,6.1,2,12.4,8.1,14.1l42.4,11.3L58.2,491l-23.9-6.4
	c-6.1-1.6-12.4,2-14.1,8.1c-1.6,6.1,2,12.4,8.1,14.1l1.7,0.5L7.3,520.4c-6.9,4-9.3,12.8-5.4,19.6c3.9,6.8,12.8,9.1,19.7,5.1
	L44.3,532l-0.5,1.7c-1.6,6.1,2,12.4,8.1,14.1c6.1,1.6,12.4-2,14.1-8.1l6.4-23.9l43.8-25.3l-11.3,42.4c-1.6,6.1,2,12.5,8.1,14.1
	c6.1,1.6,12.5-2,14.1-8.1l17.3-64.6l61.7-35.6l-15,101.5c-0.1,0.5-0.1,0.9-0.1,1.4c-6.4,4.9-8.3,13.9-4.2,21
	c1.6,2.7,3.8,4.8,6.3,6.1c2.5,1.5,5.4,2.4,8.5,2.4c8.3,0,15.1-6.2,16.1-14.1c0.4-0.2,0.8-0.5,1.2-0.8l80.4-63.7l0,71.3l-47.3,47.3
	c-4.5,4.5-4.5,11.8,0,16.3c4.5,4.5,11.8,4.5,16.3,0l31-31v50.6l-17.5,17.5c-4.5,4.5-4.5,11.8,0,16.3c4.5,4.5,11.8,4.5,16.3,0
	l1.2-1.2v26.2c0,8,6.4,14.5,14.3,14.5c7.9,0,14.3-6.5,14.3-14.5v-26.2l1.2,1.2c4.5,4.5,11.8,4.5,16.3,0c4.5-4.5,4.5-11.8,0-16.3
	l-17.5-17.5v-50.6l31,31c4.5,4.5,11.8,4.5,16.3,0c4.5-4.5,4.5-11.8,0-16.3l-47.3-47.3v-71.3l80.4,63.7c0.4,0.3,0.8,0.5,1.2,0.8
	c1,8,7.8,14.1,16.1,14.1c3.1,0,6-0.9,8.5-2.4c2.6-1.4,4.8-3.4,6.3-6.2c4.1-7.1,2.2-16.1-4.2-21c0-0.5,0-0.9-0.1-1.4l-15-101.5
	l61.7,35.6l17.3,64.6c1.6,6.1,8,9.8,14.1,8.1c6.1-1.6,9.8-8,8.1-14.1L511,490.4l43.8,25.3l6.4,23.9c1.6,6.1,8,9.8,14.1,8.1
	c6.1-1.6,9.8-8,8.1-14.1l-0.4-1.7l22.7,13.1c6.9,4,15.7,1.7,19.7-5.1C629.4,533.2,626.9,524.4,620,520.4L620,520.4z M521.7,360
	l-106.5,42.2l-73-42.2l73-42.2L521.7,360z M417.7,179.8L401,293.1l-73,42.2v-84.3L417.7,179.8L417.7,179.8z M209.6,179.8l89.8,71.1
	v84.3l-73-42.2L209.6,179.8L209.6,179.8z M105.6,360l106.5-42.2l73,42.2l-73,42.2L105.6,360L105.6,360z M209.6,540.2l16.7-113.3
	l73-42.2V469L209.6,540.2z M417.7,540.2L327.9,469v-84.3l73,42.2L417.7,540.2z M388.2,489.6c-7.8-14.4-6.6-40,0.8-52.8
	c1.7-3,3.8-5.3,6.2-6.6c-12.5,6.8-43.9-8.9-53.5-26.6c7.8,14.4,6.6,40-0.8,52.8c-1.7,3-3.8,5.3-6.2,6.6
	C347.2,456.3,378.6,471.9,388.2,489.6L388.2,489.6z M353.1,424.8c3.5,2.6,7.4,4.9,11.5,7c3.6,1.8,10.1,4.7,17.2,5.8
	c-3.6,8.3-5.5,19.8-4.9,31c-3.5-2.6-7.4-4.9-11.5-7c-3.6-1.8-10.1-4.7-17.2-5.8C351.7,447.4,353.6,436,353.1,424.8L353.1,424.8z
	 M289.8,406.1c-8.6,13.9-31.4,25.7-46.1,25.7c-3.5,0-6.5-0.6-8.8-2c12.1,7.4,14.3,42.5,3.7,59.7c8.6-13.9,31.4-25.7,46.1-25.7
	c3.4,0,6.5,0.6,8.7,2C281.5,458.3,279.3,423.3,289.8,406.1L289.8,406.1z M251.3,468.9c0.5-4.4,0.5-8.9,0.3-13.4
	c-0.3-4-1-11.1-3.5-17.8c9-1,19.8-5.2,29.3-11.2c-0.5,4.4-0.5,8.9-0.3,13.4c0.3,4,1,11.1,3.5,17.8
	C271.6,458.8,260.7,462.9,251.3,468.9L251.3,468.9z M216.5,335.3c-1.7-3-2.7-5.9-2.6-8.6c-0.4,14.2-29.6,33.6-49.8,33.1
	c16.3,0.4,37.9,14.3,45.3,27.1c1.7,3,2.7,5.9,2.6,8.6c0.4-14.2,29.6-33.6,49.8-33.1C245.5,362,223.9,348.1,216.5,335.3L216.5,335.3z
	 M212.5,380.2c-5.4-7.2-14.4-14.6-24.4-19.7c4-1.8,8-4,11.8-6.5c3.3-2.2,9.1-6.4,13.6-11.9c5.4,7.2,14.4,14.6,24.4,19.7
	c-4,1.8-8,4-11.8,6.5C222.8,370.5,217,374.7,212.5,380.2L212.5,380.2z M239.1,230.4c7.8,14.4,6.6,40-0.8,52.8
	c-1.7,3-3.8,5.3-6.2,6.6c12.5-6.8,43.9,8.8,53.5,26.6c-7.8-14.4-6.6-40,0.8-52.8c1.7-3,3.8-5.3,6.1-6.6
	C280.1,263.7,248.7,248.1,239.1,230.4z M274.2,295.3c-3.5-2.6-7.4-4.9-11.5-7c-3.6-1.8-10.1-4.7-17.2-5.8c3.6-8.3,5.4-19.8,4.9-31
	c3.5,2.6,7.4,4.9,11.5,7c3.6,1.8,10.1,4.7,17.2,5.8C275.6,272.6,273.7,284,274.2,295.3z M337.5,313.9c8.6-13.9,31.4-25.7,46.1-25.7
	c3.5,0,6.5,0.6,8.8,2.1c-12.1-7.4-14.3-42.5-3.7-59.7c-8.6,13.9-31.4,25.7-46.1,25.7c-3.5,0-6.5-0.6-8.8-2
	C345.8,261.7,348,296.7,337.5,313.9L337.5,313.9z M376,251.1c-0.5,4.4-0.6,8.9-0.3,13.4c0.3,4,1,11.1,3.5,17.8
	c-8.9,1-19.8,5.2-29.3,11.2c0.5-4.4,0.6-8.9,0.3-13.4c-0.3-4-1-11.1-3.5-17.8C355.7,261.2,366.6,257.1,376,251.1z"/>
</svg>
