<?xml version="1.0" encoding="utf-8"?>
<!-- Generator: Adobe Illustrator 23.0.2, SVG Export Plug-In . SVG Version: 6.00 Build 0)  -->
<svg version="1.1" id="Layer_1" xmlns="http://www.w3.org/2000/svg" xmlns:xlink="http://www.w3.org/1999/xlink" x="0px" y="0px"
	 viewBox="0 0 720 720" style="enable-background:new 0 0 720 720;" xml:space="preserve">
<path d="M388.5,331.5l-20.8,9.9l-7.7-21.7l-7.7,21.7l-20.8-9.9l9.9,20.8l-21.7,7.7l21.7,7.7l-9.9,20.8l20.8-9.9l7.7,21.7l7.7-21.7
	l20.8,9.9l-9.9-20.8l21.7-7.7l-21.7-7.7L388.5,331.5z M383.9,360l-7.1,2.5l-5.8,2l2.6,5.5l3.2,6.8l-6.8-3.2l-5.5-2.6l-2,5.8
	l-2.5,7.1l-2.5-7.1l-2-5.8l-5.5,2.6l-6.8,3.2l3.2-6.8l2.6-5.5l-5.8-2l-7.1-2.5l7.1-2.5l5.8-2l-2.6-5.5l-3.2-6.8l6.8,3.2l5.5,2.6
	l2-5.8l2.5-7.1l2.5,7.1l2,5.8l5.5-2.6l6.8-3.2l-3.2,6.8l-2.6,5.5l5.8,2L383.9,360L383.9,360z M720,333.8l-32.2,3.5l-13.1-29.7
	l-13.1,29.7l-32.2-3.5l11.4,15.6H597l40.8-40.8c4.1-4.1,4.1-10.8,0-15c-4.1-4.1-10.8-4.1-15,0l-55.8,55.8h-33.5l40.8-40.8
	c4.1-4.1,4.1-10.8,0-15c-4.1-4.1-10.8-4.1-15,0l-55.8,55.8l-72.9,0l-11.6-4.1l54.4-22.5l6.3,21.6l12-19.8l22.5,5.5l-11.1-20.3
	l16-16.7l-23.1-0.5l-6.5-22.2l-12,19.8l-22.5-5.5l11.1,20.3l-2.4,2.5l-51.6,21.4l5.4-11.3l47.6-47.6h86.8c5.8,0,10.6-4.7,10.6-10.6
	s-4.7-10.6-10.6-10.6h-65.6L510,225h86.8c5.8,0,10.6-4.7,10.6-10.6c0-5.8-4.7-10.6-10.6-10.6h-65.6l34.9-34.9l3,19.1l20.3-25.3
	l30.2,11.7l-11.7-30.2l25.3-20.3l-32-5l-5-32l-20.3,25.3l-30.2-11.7l11.7,30.2L532,151l19.1,3l-31,31v-57.7
	c0-5.8-4.7-10.6-10.6-10.6c-5.8,0-10.6,4.7-10.6,10.6v78.9l-23.7,23.7v-57.7c0-5.8-4.7-10.6-10.6-10.6c-5.8,0-10.6,4.7-10.6,10.6
	l0,78.9l-51.5,51.5l-11.2,5.3l22.5-54.4l19.7,10.8l-5.5-22.5l19.8-12l-22.2-6.5l-0.5-23.1l-16.7,16l-20.3-11.1l5.5,22.5l-19.8,12
	l22.2,6.5l0.1,3.4L374.7,301l-4.2-11.8v-67.3l61.3-61.3c4.1-4.1,4.1-10.8,0-15c-4.1-4.1-10.8-4.1-15,0L370.6,192v-33.5l61.3-61.3
	c4.1-4.1,4.1-10.8,0-15c-4.1-4.1-10.8-4.1-15,0l-46.4,46.4V79.2l15.6,11.4l-3.5-32.2l29.7-13.1l-29.7-13.1L386.2,0L360,19.2L333.8,0
	l3.5,32.2l-29.7,13.1l29.7,13.1l-3.5,32.2l15.6-11.4V123l-40.8-40.8c-4.1-4.1-10.8-4.1-15,0c-4.1,4.1-4.1,10.8,0,15l55.8,55.8v33.5
	l-40.8-40.8c-4.1-4.1-10.8-4.1-15,0c-4.1,4.1-4.1,10.8,0,15l55.8,55.8v72.9l-4.1,11.6l-22.5-54.4l21.6-6.3l-19.8-12l5.5-22.5
	l-20.3,11.1l-16.7-16l-0.5,23.1l-22.2,6.5l19.8,12l-5.5,22.5l20.3-11.1l2.5,2.4l21.4,51.6l-11.3-5.4l-47.6-47.6v-86.8
	c0-5.8-4.7-10.6-10.6-10.6c-5.8,0-10.6,4.7-10.6,10.6v65.6L225,210v-86.8c0-5.8-4.7-10.6-10.6-10.6c-5.8,0-10.6,4.7-10.6,10.6v65.6
	L168.9,154l19.1-3l-25.3-20.3l11.7-30.2l-30.2,11.7l-20.3-25.3l-5,32l-32,5l25.3,20.3l-11.7,30.2l30.2-11.7L151,188l3-19.1l31,31
	h-57.7c-5.8,0-10.6,4.7-10.6,10.6c0,5.8,4.7,10.6,10.6,10.6h78.9l23.7,23.7h-57.7c-5.8,0-10.6,4.7-10.6,10.6
	c0,5.8,4.7,10.6,10.6,10.6l78.9,0l51.5,51.5l5.3,11.2l-54.4-22.5l10.8-19.7l-22.5,5.5l-12-19.8l-6.5,22.2l-23.1,0.5l16,16.7
	l-11.1,20.3l22.5-5.5l12,19.8l6.5-22.2l3.4-0.1l51.6,21.4l-11.8,4.2h-67.3l-61.3-61.3c-4.1-4.1-10.8-4.1-15,0
	c-4.1,4.1-4.1,10.8,0,15l46.4,46.4l-33.5,0l-61.3-61.3c-4.1-4.1-10.8-4.1-15,0c-4.1,4.1-4.1,10.8,0,15l46.4,46.4H79.2l11.4-15.6
	l-32.2,3.5l-13.1-29.7l-13.1,29.7L0,333.8L19.2,360L0,386.2l32.2-3.5l13.1,29.7l13.1-29.7l32.2,3.5l-11.4-15.6H123l-40.8,40.8
	c-4.1,4.1-4.1,10.8,0,15c2.1,2.1,4.8,3.1,7.5,3.1c2.7,0,5.4-1,7.5-3.1l55.8-55.8l33.5,0l-40.8,40.8c-4.1,4.1-4.1,10.8,0,15
	c2.1,2.1,4.8,3.1,7.5,3.1s5.4-1,7.5-3.1l55.8-55.8h72.9l11.6,4.1l-54.4,22.5l-6.3-21.6l-12,19.8l-22.5-5.5l11.1,20.3l-16,16.7
	l23.1,0.5l6.5,22.2l12-19.8l22.5,5.5l-11.1-20.3l2.4-2.5l51.6-21.4l-5.4,11.3l-47.6,47.6h-86.8c-5.8,0-10.6,4.7-10.6,10.6
	c0,5.8,4.7,10.6,10.6,10.6h65.6L210,495h-86.8c-5.8,0-10.6,4.7-10.6,10.6c0,5.8,4.7,10.6,10.6,10.6h65.6L154,551.1l-3-19.1
	l-20.3,25.3l-30.2-11.7l11.7,30.2l-25.3,20.3l32,5l5,32l20.3-25.3l30.2,11.7l-11.7-30.2L188,569l-19.1-3l31-31v57.7
	c0,5.8,4.7,10.6,10.6,10.6s10.6-4.7,10.6-10.6v-78.9l23.7-23.7v57.7c0,5.8,4.7,10.6,10.6,10.6c5.8,0,10.6-4.7,10.6-10.6l0-78.9
	l51.6-51.6l11.1-5.3l-22.5,54.4l-19.7-10.8l5.5,22.5l-19.8,12l22.2,6.5l0.5,23.1l16.7-16l20.3,11.1l-5.5-22.5l19.8-12l-22.2-6.5
	l-0.1-3.4l21.4-51.6l4.2,11.8v67.3l-61.3,61.3c-4.1,4.1-4.1,10.8,0,15c2.1,2.1,4.8,3.1,7.5,3.1c2.7,0,5.4-1,7.5-3.1l46.4-46.4v33.5
	l-61.3,61.3c-4.1,4.1-4.1,10.8,0,15c2.1,2.1,4.8,3.1,7.5,3.1c2.7,0,5.4-1,7.5-3.1l46.4-46.4v49.4l-15.6-11.4l3.5,32.2l-29.7,13.1
	l29.7,13.1l-3.5,32.2l26.2-19.2l26.2,19.2l-3.5-32.2l29.7-13.1l-29.7-13.1l3.5-32.2l-15.6,11.4V597l40.8,40.8
	c2.1,2.1,4.8,3.1,7.5,3.1c2.7,0,5.4-1,7.5-3.1c4.1-4.1,4.1-10.8,0-15l-55.8-55.8v-33.5l40.8,40.8c2.1,2.1,4.8,3.1,7.5,3.1
	c2.7,0,5.4-1,7.5-3.1c4.1-4.1,4.1-10.8,0-15l-55.8-55.8v-72.9l4.1-11.6l22.5,54.4l-21.6,6.3l19.8,12l-5.5,22.5l20.3-11.1l16.7,16
	l0.5-23.1l22.2-6.5l-19.8-12l5.5-22.5l-20.3,11.1l-2.5-2.4l-21.4-51.6l11.3,5.4l47.6,47.6v86.8c0,5.8,4.7,10.6,10.6,10.6
	c5.8,0,10.6-4.7,10.6-10.6v-65.6L495,510v86.8c0,5.8,4.7,10.6,10.6,10.6c5.8,0,10.6-4.7,10.6-10.6v-65.6l34.9,34.9l-19.1,3
	l25.3,20.3l-11.7,30.2l30.2-11.7l20.3,25.3l5-32l32-5l-25.3-20.3l11.7-30.2l-30.2,11.7L569,532l-3,19.1l-31-31l57.7,0
	c5.8,0,10.6-4.7,10.6-10.6c0-5.8-4.7-10.6-10.6-10.6l-78.9,0l-23.7-23.7l57.7,0c5.8,0,10.6-4.7,10.6-10.6s-4.7-10.6-10.6-10.6h-78.9
	l-51.5-51.5l-5.3-11.2l54.4,22.5l-10.8,19.7l22.5-5.5l12,19.8l6.5-22.2l23.1-0.5l-16-16.7l11.1-20.3l-22.5,5.5l-12-19.8l-6.5,22.2
	l-3.4,0.1L419,374.7l11.8-4.2h67.3l61.3,61.3c2.1,2.1,4.8,3.1,7.5,3.1c2.7,0,5.4-1,7.5-3.1c4.1-4.1,4.1-10.8,0-15L528,370.6h33.5
	l61.3,61.3c2.1,2.1,4.8,3.1,7.5,3.1c2.7,0,5.4-1,7.5-3.1c4.1-4.1,4.1-10.8,0-15l-46.4-46.4l49.4,0l-11.4,15.6l32.2-3.5l13.1,29.7
	l13.1-29.7l32.2,3.5L700.9,360L720,333.8L720,333.8z M401.8,366.3l-14.3,5.1l6.5,13.7l8,16.9l-16.9-8l-13.8-6.5l-5.1,14.3l-6.3,17.6
	l-6.3-17.6l-5.1-14.3l-13.7,6.5l-16.9,8l8-16.9l6.5-13.7l-14.3-5.1l-17.6-6.3l17.6-6.3l14.3-5.1l-6.5-13.7l-8-16.9l16.9,8l13.7,6.5
	l5.1-14.3l6.3-17.6l6.3,17.6l5.1,14.3l13.8-6.5l16.9-8l-8,16.9l-6.5,13.7l14.3,5.1l17.6,6.3L401.8,366.3L401.8,366.3z"/>
</svg>
