<?xml version="1.0" encoding="utf-8"?>
<!-- Generator: Adobe Illustrator 23.0.2, SVG Export Plug-In . SVG Version: 6.00 Build 0)  -->
<svg version="1.1" id="Layer_1" xmlns="http://www.w3.org/2000/svg" xmlns:xlink="http://www.w3.org/1999/xlink" x="0px" y="0px"
	 viewBox="0 0 649.4 720" style="enable-background:new 0 0 649.4 720;" xml:space="preserve">
<path d="M359.7,299.3h-70.1l-35,60.7l35,60.7h70.1l35-60.7L359.7,299.3L359.7,299.3z M348,400.4h-46.7L278,360l23.3-40.4H348
	l23.3,40.4L348,400.4z M347,347.1v-25.7l-22.3,12.9l-22.3-12.9v25.7L280.2,360l22.3,12.9v25.7l22.3-12.9l22.3,12.9v-25.7l22.3-12.9
	L347,347.1z M623.5,472.8l-25.9,14.9l-25.9-14.9v19.6L536.5,472l65.9-17.6l-4.6-17.1l-83,22.2l-38.6-22.3l65.9-17.7l-4.6-17.1
	L460.5,423l-6.1,1.6L403.1,395l14.4-24.9l0.7-1.3h33.6l10.5,6.1v29.9l25.9-14.9l25.9,14.9v-29.9l25.9-14.9l-25.9-14.9v-29.9
	l-25.9,14.9l-25.9-14.9l0,29.9l-10.5,6.1h-33.6l-0.7-1.3L403.1,325l52.7-30.4l3.9,1.1l76.9,20.6l4.6-17.1L477.5,282l38.6-22.3
	l80.8,21.7l4.6-17.1l-63.7-17.1l34-19.6l0,19.6l25.9-14.9l25.9,14.9v-29.8l25.9-14.9l-25.9-14.9l0-29.9l-25.9,14.9l-25.9-14.9v29.9
	L546,202.4l17,9.8l-35.4,20.4l17.7-65.9l-17.1-4.6l-22.2,83l-38.6,22.3l17.6-65.9l-17.1-4.6l-20.6,76.9l-1.6,6.1l-51.4,29.7
	l-14.4-24.9l-0.7-1.3l16.8-29.1l10.5-6.1l25.9,14.9v-29.9l25.9-14.9l-25.9-14.9l0-29.9l-25.9,14.9l-25.9-14.9v29.9l-25.9,14.9
	l25.9,14.9v12.1l-16.8,29.1h-30.2v-60.9l2.9-2.9l56.3-56.3L380.2,142l-46.6,46.6v-44.6l2.9-2.9l56.3-56.3l-12.5-12.5L333.6,119V79.7
	l17,9.8l0-29.9l25.9-14.9l-25.9-14.9V0l-25.9,14.9L298.8,0v29.9L273,44.8l25.9,14.9v29.9l17-9.8v40.8l-48.2-48.2l-12.5,12.5
	l60.7,60.7v44.6L267.6,142l-12.5,12.5l60.7,60.7v59.3h-30.2l-16.8-29.1v-12.1l25.9-14.9l-25.9-14.9l0-29.9L243,188.6l-25.9-14.9
	v29.9l-25.9,14.9l25.9,14.9v29.9l25.9-14.9l10.5,6.1l16.8,29.1l-0.7,1.3l-14.4,24.9l-52.7-30.4l-21.7-80.8l-17.1,4.6l17.1,63.7
	l-38.6-22.3l-21.7-80.8l-17.1,4.6l17.1,63.7l-34-19.6l17-9.8l-25.9-14.9v-29.9l-25.9,14.9l-25.9-14.9l0,29.9L0,202.4l25.9,14.9v29.9
	l25.9-14.9l25.9,14.9v-19.6l35.4,20.4l-65.9,17.6l4.6,17.1l76.9-20.6l6.1-1.6l38.6,22.3l-65.9,17.6l4.6,17.1l76.9-20.6l6.1-1.6
	l51.4,29.7L232,349.9l-0.7,1.3h-33.6l-10.5-6.1v-29.9l-25.9,14.9l-25.9-14.9v29.9L109.6,360l25.9,14.9l0,29.9l25.9-14.9l25.9,14.9
	l0-29.9l10.5-6.1h33.6l0.7,1.3l14.4,24.9l-52.7,30.4l-80.8-21.7l-4.6,17.1l63.7,17.1l-38.6,22.3l-3.9-1.1l-76.9-20.6l-4.6,17.1
	l63.7,17.1l-34,19.6v-19.6l-25.9,14.9l-25.9-14.9v29.8L0,517.6l25.9,14.9l0,29.9l25.9-14.9l25.9,14.9l0-29.9l25.9-14.9l-17-9.8
	l35.4-20.4l-17.6,65.9l17.1,4.6l20.6-76.9l1.6-6.1l38.6-22.3l-17.6,65.9l17.1,4.6l22.2-83l51.4-29.7l14.4,24.9l0.7,1.3l-16.8,29.1
	l-10.5,6.1l-25.9-14.9v29.9l-25.9,14.9l25.9,14.9l0,29.9l25.9-14.9l25.9,14.9v-29.9l25.9-14.9l-25.9-14.9v-12.1l16.8-29.1h30.2v60.9
	l-2.9,2.9l-56.3,56.3l12.5,12.5l46.6-46.6v44.6l-59.2,59.2l12.5,12.5l46.6-46.6v39.3l-17-9.8l0,29.9L273,675.2l25.9,14.9l0,29.9
	l25.9-14.9l25.9,14.9v-29.9l25.9-14.9l-25.9-14.9v-29.8l-17,9.8l0-40.8l48.2,48.2l12.5-12.5L338,578.8l-4.5-4.5v-44.6l48.2,48.2
	l12.5-12.5L338,509.1l-4.5-4.5l0-59.3h30.2l16.8,29.1v12.1l-25.9,14.9l25.9,14.9v29.9l25.9-14.9l25.9,14.9l0-29.9l25.9-14.9
	l-25.9-14.9v-29.9l-25.9,14.9l-10.5-6.1l-16.8-29.1l0.7-1.3l14.4-24.9l52.7,30.4l21.7,80.8l17.1-4.6l-17.1-63.7l38.6,22.3l1.1,3.9
	l20.6,76.9l17.1-4.6L529,488.2l34,19.6l-17,9.8l25.9,14.9v29.9l25.9-14.9l25.9,14.9l0-29.9l25.9-14.9l-25.9-14.9L623.5,472.8
	L623.5,472.8z M362.3,425.1h-75.2L249.5,360l37.6-65.1h75.2l37.6,65.1L362.3,425.1z"/>
</svg>
