<?xml version="1.0" encoding="utf-8"?>
<!-- Generator: Adobe Illustrator 23.0.2, SVG Export Plug-In . SVG Version: 6.00 Build 0)  -->
<svg version="1.1" id="Layer_1" xmlns="http://www.w3.org/2000/svg" xmlns:xlink="http://www.w3.org/1999/xlink" x="0px" y="0px"
	 viewBox="0 0 755.5 720" style="enable-background:new 0 0 755.5 720;" xml:space="preserve">
<path d="M755.5,292.9l-15.7-48.3l-97.9,31.8l33.9-66.5l-45.3-23.1l-56.9,111.7l-46.8,15.2l21.6-125.3l-36.8-26.8l-108.3,56.8v-43.7
	l88.7-88.7l-35.9-35.9L403.2,103V0h-50.8v103l-52.8-52.7l-35.9,35.9l88.7,88.7v43.5l-107.9-56.8l-36.9,26.8L229,313.9l-47-15.3
	L125,186.9l-45.3,23.1l33.9,66.5l-97.9-31.8L0,292.9l97.9,31.8l-66.5,33.9l23.1,45.3L166.3,347l42.3,13.8l-83.7,81.5l14.1,43.4
	L263,503.7l-31.7,43.5l-123.9,19.6l8,50.2l73.7-11.7l-60.5,83.3l41.1,29.9l60.5-83.3l11.7,73.7l50.2-7.9l-19.6-123.9l29.9-41.1
	l52.5,106.6l45.6,0L453.2,536l29.9,41.1L463.4,701l50.2,7.9l11.7-73.7l60.5,83.3l41.1-29.9l-60.5-83.3l73.7,11.7l8-50.2l-123.9-19.6
	l-31.6-43.4l123.9-17.9l14.1-43.3l-83.8-81.8l42.4-13.8L701,403.9l23.1-45.3l-66.5-33.9L755.5,292.9z M403.2,276l86.3-45.3
	l-17.4,100.9L403.2,354V276z M352.4,275.8V354l-68.8-22.4l-17.3-101.1L352.4,275.8z M296.8,457.2l-99.5-14.5l66-64.3l73.4,23.8
	L296.8,457.2z M377.7,574l-41.6-84.4l41.7-57.4l41.7,57.3L377.7,574z M558.3,442.9l-99.5,14.4l-40-55l73.4-23.8L558.3,442.9z
	 M558.3,442.9"/>
</svg>
