<?xml version="1.0" encoding="utf-8"?>
<!-- Generator: Adobe Illustrator 23.0.2, SVG Export Plug-In . SVG Version: 6.00 Build 0)  -->
<svg version="1.1" id="Layer_1" xmlns="http://www.w3.org/2000/svg" xmlns:xlink="http://www.w3.org/1999/xlink" x="0px" y="0px"
	 viewBox="0 0 626.9 720" style="enable-background:new 0 0 626.9 720;" xml:space="preserve">
<path d="M619.3,521.2L594,506.6l1.6-0.4c5.7-1.5,9.1-7.4,7.6-13.2c-1.5-5.7-7.4-9.1-13.2-7.6l-22.4,6l-33.9-19.6l39.6-10.6
	c5.7-1.5,9.1-7.4,7.6-13.2c-1.5-5.7-7.4-9.1-13.2-7.6l-60.4,16.2L473.5,437l77.6-20.8c5.7-1.5,9.1-7.4,7.6-13.2
	c-1.5-5.7-7.4-9.1-13.2-7.6l-98.4,26.4l-33.9-19.6l115.7-31c3.1-0.8,5.5-2.9,6.8-5.6c15.9,6.6,28.7,18,28.7,28.2
	c0-15.6,29.6-33.8,54.9-33.8c-25.3,0-54.9-18.2-54.9-33.8c0,10.2-12.8,21.6-28.7,28.2c-1.3-2.7-3.7-4.8-6.8-5.6l-115.7-31l33.9-19.6
	l98.4,26.4c5.7,1.5,11.6-1.9,13.2-7.6c1.5-5.7-1.9-11.6-7.6-13.2L473.5,283l33.9-19.6l60.4,16.2c5.7,1.5,11.6-1.9,13.2-7.6
	c1.5-5.7-1.9-11.6-7.6-13.2l-39.6-10.6l33.9-19.6l22.4,6c5.7,1.5,11.6-1.9,13.2-7.6c1.5-5.7-1.9-11.6-7.6-13.2l-1.6-0.4l25.3-14.6
	c6.9-4,9.6-12.4,5.9-18.8c-3.7-6.4-12.3-8.3-19.2-4.3l-25.3,14.6l0.4-1.6c1.5-5.7-1.9-11.6-7.6-13.2c-5.7-1.5-11.6,1.9-13.2,7.6
	l-6,22.4l-33.9,19.6l10.6-39.6c1.5-5.7-1.9-11.6-7.6-13.2c-5.7-1.5-11.6,1.9-13.2,7.6l-16.2,60.4l-33.9,19.6l20.8-77.6
	c1.5-5.7-1.9-11.6-7.6-13.2c-5.7-1.5-11.6,1.9-13.2,7.6l-26.4,98.4l-33.9,19.6l31-115.7c0.8-3.1,0.2-6.2-1.4-8.7
	c13.7-10.5,29.9-15.9,38.8-10.8c-13.5-7.8-14.5-42.5-1.8-64.4c-12.7,21.9-43.2,38.4-56.7,30.7c8.9,5.1,12.3,21.9,10.1,39
	c-3-0.2-6,0.8-8.3,3.1l-84.7,84.7v-39.2l72.1-72.1c4.2-4.2,4.2-11,0-15.2c-4.2-4.2-11-4.2-15.2,0l-56.8,56.8v-39.2L371,99.5
	c4.2-4.2,4.2-11,0-15.2c-4.2-4.2-11-4.2-15.2,0l-29,29V74.1l16.4-16.4c4.2-4.2,4.2-11,0-15.2c-4.2-4.2-11-4.2-15.2,0l-1.2,1.1V14.5
	c0-8-6-14.5-13.3-14.5c-7.4,0-13.3,6.5-13.3,14.5v29.2l-1.2-1.1c-4.2-4.2-11-4.2-15.2,0c-4.2,4.2-4.2,11,0,15.2l16.4,16.4v39.2
	l-29-29c-4.2-4.2-11-4.2-15.2,0c-4.2,4.2-4.2,11,0,15.2l44.2,44.2v39.2l-56.8-56.8c-4.2-4.2-11-4.2-15.2,0c-4.2,4.2-4.2,11,0,15.2
	l72.1,72.1v39.2l-84.7-84.7c-2.3-2.3-5.3-3.3-8.3-3.1c-2.3-17.1,1.2-33.8,10.1-39c-13.5,7.8-44-8.7-56.7-30.7
	c12.7,21.9,11.7,56.6-1.8,64.4c8.9-5.1,25.1,0.2,38.8,10.8c-1.6,2.5-2.3,5.6-1.4,8.7l31,115.7l-33.9-19.6l-26.4-98.4
	c-1.5-5.7-7.4-9.1-13.2-7.6c-5.7,1.5-9.1,7.4-7.6,13.2l20.8,77.6l-33.9-19.6l-16.2-60.4c-1.5-5.7-7.4-9.1-13.2-7.6
	c-5.7,1.5-9.1,7.4-7.6,13.2l10.6,39.6l-33.9-19.6l-6-22.4c-1.5-5.7-7.4-9.1-13.2-7.6c-5.7,1.5-9.1,7.4-7.6,13.2l0.4,1.6l-25.3-14.6
	c-6.9-4-15.5-2.1-19.2,4.3c-3.7,6.4-1.1,14.8,5.9,18.8l25.3,14.6l-1.6,0.4c-5.7,1.5-9.1,7.4-7.6,13.2c1.5,5.7,7.4,9.1,13.2,7.6
	l22.4-6l33.9,19.6l-39.6,10.6c-5.7,1.5-9.1,7.4-7.6,13.2c1.5,5.7,7.4,9.1,13.2,7.6l60.4-16.2l33.9,19.6l-77.6,20.8
	c-5.7,1.5-9.1,7.4-7.6,13.2c1.5,5.7,7.4,9.1,13.2,7.6l98.4-26.4l33.9,19.6L98,348.8c-3.1,0.8-5.5,2.9-6.8,5.6
	c-15.9-6.6-28.7-18-28.7-28.2c0,15.6-29.6,33.8-54.9,33.8c25.3,0,54.9,18.2,54.9,33.8c0-10.2,12.8-21.6,28.7-28.2
	c1.3,2.7,3.7,4.8,6.8,5.6l115.7,31l-33.9,19.6l-98.4-26.4c-5.7-1.5-11.6,1.9-13.2,7.6c-1.5,5.7,1.9,11.6,7.6,13.2l77.6,20.8
	l-33.9,19.6l-60.4-16.2c-5.7-1.5-11.6,1.9-13.2,7.6c-1.5,5.7,1.9,11.6,7.6,13.2l39.6,10.6l-33.9,19.6l-22.4-6
	c-5.7-1.5-11.6,1.9-13.2,7.6c-1.5,5.7,1.9,11.6,7.6,13.2l1.6,0.4L7.5,521.2c-6.9,4-9.6,12.4-5.9,18.8c3.7,6.4,12.3,8.3,19.2,4.3
	l25.3-14.6l-0.4,1.6c-1.5,5.7,1.9,11.6,7.6,13.2c5.7,1.5,11.6-1.9,13.2-7.6l6-22.4l33.9-19.6l-10.6,39.6c-1.5,5.7,1.9,11.6,7.6,13.2
	c5.7,1.5,11.6-1.9,13.2-7.6l16.2-60.4l33.9-19.6l-20.8,77.7c-1.5,5.7,1.9,11.6,7.6,13.2c5.7,1.5,11.6-1.9,13.2-7.6l26.4-98.4
	l33.9-19.6L196,541c-0.8,3.1-0.2,6.2,1.4,8.7c-13.7,10.5-29.9,15.9-38.8,10.8c13.5,7.8,14.5,42.5,1.8,64.4
	c12.7-21.9,43.2-38.4,56.7-30.6c-8.9-5.1-12.3-21.9-10.1-39c3,0.2,6-0.8,8.3-3.1l84.7-84.7v39.2L228,578.7c-4.2,4.2-4.2,11,0,15.2
	c4.2,4.2,11,4.2,15.2,0l56.8-56.9v39.2l-44.2,44.2c-4.2,4.2-4.2,11,0,15.2c4.2,4.2,11,4.2,15.2,0l29-29v39.2l-16.4,16.4
	c-4.2,4.2-4.2,11,0,15.2c4.2,4.2,11,4.2,15.2,0l1.2-1.1v29.2c0,8,6,14.5,13.3,14.5c7.4,0,13.3-6.5,13.3-14.5v-29.2l1.2,1.1
	c4.2,4.2,11,4.2,15.2,0c4.2-4.2,4.2-11,0-15.2l-16.4-16.4v-39.2l29,29c4.2,4.2,11,4.2,15.2,0c4.2-4.2,4.2-11,0-15.2l-44.2-44.2
	v-39.2l56.8,56.9c4.2,4.2,11,4.2,15.2,0c4.2-4.2,4.2-11,0-15.2l-72.1-72.1v-39.2l84.7,84.7c2.3,2.3,5.3,3.3,8.3,3.1
	c2.3,17.1-1.2,33.8-10.1,39c13.5-7.8,44,8.7,56.7,30.6c-12.7-21.9-11.7-56.6,1.8-64.4c-8.9,5.1-25.1-0.3-38.8-10.8
	c1.7-2.5,2.3-5.6,1.4-8.7l-31-115.7l33.9,19.6l26.4,98.4c1.5,5.7,7.4,9.1,13.2,7.6c5.7-1.5,9.1-7.4,7.6-13.2l-20.8-77.7l33.9,19.6
	l16.2,60.4c1.5,5.7,7.4,9.1,13.2,7.6c5.7-1.5,9.1-7.4,7.6-13.2l-10.6-39.6l33.9,19.6l6,22.4c1.5,5.7,7.4,9.1,13.2,7.6
	c5.7-1.5,9.1-7.4,7.6-13.2l-0.4-1.6l25.3,14.6c6.9,4,15.5,2.1,19.2-4.3C628.9,533.6,626.3,525.2,619.3,521.2L619.3,521.2z
	 M452.5,119.1c-1.7,11.9-0.9,24,2.8,33c-9.7,1.3-20.5,6.7-30,14.1c1.7-11.9,0.9-23.9-2.8-33C432.2,131.8,443.1,126.5,452.5,119.1z
	 M174.4,119.1c9.5,7.4,20.3,12.7,30,14.1c-3.7,9.1-4.5,21.1-2.8,33c-9.5-7.4-20.3-12.7-30-14.1C175.2,143.1,176,131,174.4,119.1
	L174.4,119.1z M174.4,600.9c1.7-11.9,0.9-23.9-2.8-33c9.7-1.3,20.5-6.7,30-14.1c-1.7,11.9-0.9,23.9,2.8,33
	C194.7,588.2,183.8,593.5,174.4,600.9z M226.4,209.3l73.7,73.7v53.9l-46.7-27L226.4,209.3L226.4,209.3z M62.5,378.9
	c-6-7.7-16.1-14.4-27.2-18.9c11.1-4.5,21.2-11.2,27.2-18.9c6,7.7,16,14.4,27.2,18.9C78.5,364.5,68.5,371.2,62.5,378.9z M139.4,360
	L240,333l46.7,27l-46.7,27L139.4,360L139.4,360z M300.1,437l-73.7,73.7l27-100.7l46.7-27L300.1,437L300.1,437z M452.5,600.9
	c-9.5-7.4-20.3-12.7-30-14.1c3.7-9.1,4.5-21.1,2.8-33c9.5,7.4,20.3,12.7,30,14.1C451.6,576.9,450.8,589,452.5,600.9z M564.4,341.1
	c6,7.7,16,14.4,27.2,18.9c-11.1,4.5-21.2,11.2-27.2,18.9c-6-7.7-16.1-14.4-27.2-18.9C548.4,355.5,558.4,348.8,564.4,341.1z
	 M326.8,336.9V283l73.7-73.7l-27,100.7L326.8,336.9L326.8,336.9z M400.5,510.7l-73.7-73.7v-53.9l46.7,27L400.5,510.7z M386.8,387
	l-46.7-27l46.7-27l100.7,27L386.8,387z"/>
</svg>
